<svg width="117" height="38" viewBox="0 0 117 38" fill="none" xmlns="http://www.w3.org/2000/svg">
<path fill-rule="evenodd" clip-rule="evenodd" d="M53.8837 10.7853C52.7235 10.7842 51.5829 11.0933 50.5739 11.6822V10.7853H47.1719V28.8276H50.5739V23.6941C51.4676 24.2148 52.4655 24.5177 53.4909 24.5793C54.5163 24.6409 55.5418 24.4596 56.4884 24.0494C57.4349 23.6393 58.2773 23.0112 58.9507 22.2134C59.624 21.4157 60.1104 20.4697 60.3723 19.4482C60.6342 18.4268 60.6646 17.3571 60.4613 16.3216C60.258 15.2862 59.8263 14.3125 59.1994 13.4756C58.5726 12.6388 57.7674 11.961 56.8458 11.4946C55.9242 11.0282 54.9108 10.7855 53.8837 10.7853ZM77.2424 24.2237H80.6444V17.0576C80.6444 15.6862 81.2992 14.9944 82.972 14.6515L84.7578 14.4678V11.1526C82.344 11.1526 82.0017 11.3424 80.6415 12.071V11.1526H77.2424V24.2237ZM102.292 16.1239H108.414C108.131 15.5375 107.695 15.0439 107.154 14.6988C106.613 14.3537 105.989 14.1709 105.353 14.1709C104.717 14.1709 104.093 14.3537 103.552 14.6988C103.011 15.0439 102.575 15.5375 102.292 16.1239ZM108.629 18.7014H102.08C102.262 19.324 102.608 19.8826 103.08 20.3152C103.552 20.7477 104.131 21.0373 104.754 21.1518C105.376 21.2663 106.017 21.2011 106.605 20.9637C107.193 20.7262 107.706 20.3256 108.087 19.8065H111.745C111.226 21.4593 110.12 22.8501 108.648 23.7013C107.176 24.5524 105.446 24.8013 103.803 24.3981C102.161 23.995 100.726 22.9695 99.7864 21.5265C98.8466 20.0834 98.4706 18.3289 98.7334 16.6132C98.9961 14.8975 99.8784 13.3468 101.204 12.2708C102.53 11.1947 104.201 10.6724 105.885 10.8081C107.568 10.9438 109.14 11.7275 110.287 13.0029C111.433 14.2782 112.07 15.9513 112.069 17.6882C112.068 18.0272 112.044 18.3657 111.998 18.7014H108.629ZM113.224 6.55176H116.62V24.2237H113.224V6.55176ZM91.5619 10.7853C90.2839 10.7842 89.0323 11.1584 87.954 11.8638C86.8758 12.5692 86.0157 13.5766 85.475 14.7675C84.9343 15.9583 84.7354 17.2832 84.9017 18.5863C85.0679 19.8895 85.5925 21.1167 86.4137 22.1237C87.2348 23.1308 88.3185 23.8758 89.5372 24.2712C90.7559 24.6666 92.0591 24.696 93.2935 24.3558C94.5278 24.0157 95.6421 23.3201 96.5054 22.351C97.3686 21.3819 97.9449 20.1795 98.1665 18.8851H94.7793C94.5087 19.6553 93.9852 20.3042 93.2991 20.72C92.613 21.1357 91.8073 21.2921 91.0211 21.1624C90.2348 21.0326 89.5173 20.6246 88.9921 20.009C88.467 19.3933 88.1673 18.6084 88.1446 17.7898C88.1219 16.9711 88.3777 16.17 88.8679 15.5245C89.358 14.8791 90.0518 14.4298 90.8296 14.2542C91.6074 14.0785 92.4204 14.1875 93.1284 14.5624C93.8364 14.9373 94.395 15.5545 94.7079 16.3076H98.1397C97.8273 14.7509 97.0024 13.3527 95.804 12.3489C94.6057 11.3451 93.1074 10.7972 91.5619 10.7975V10.7853ZM71.1587 11.1526H74.6916V17.1157C74.7065 17.2994 74.7155 17.4861 74.7155 17.6759C74.7155 17.8657 74.7155 18.0524 74.6916 18.2392V24.2237H71.1587V23.7829C70.1359 24.3422 68.9899 24.6198 67.8319 24.5887C66.674 24.5575 65.5436 24.2187 64.5507 23.6051C63.5578 22.9916 62.7362 22.1242 62.1658 21.0874C61.5954 20.0505 61.2956 18.8795 61.2956 17.6882C61.2956 16.4968 61.5954 15.3258 62.1658 14.289C62.7362 13.2521 63.5578 12.3847 64.5507 11.7712C65.5436 11.1576 66.674 10.8188 67.8319 10.7877C68.9899 10.7565 70.1359 11.0341 71.1587 11.5934V11.1526ZM68.0037 14.1709C67.3272 14.1703 66.6657 14.3761 66.1029 14.7622C65.5401 15.1483 65.1013 15.6974 64.842 16.34C64.5827 16.9827 64.5146 17.69 64.6462 18.3725C64.7778 19.0549 65.1033 19.6819 65.5814 20.1741C66.0596 20.6663 66.6689 21.0016 67.3324 21.1376C67.9959 21.2736 68.6837 21.2041 69.3087 20.938C69.9338 20.6718 70.4681 20.221 70.844 19.6425C71.2199 19.0641 71.4206 18.3839 71.4206 17.6882C71.4206 16.7559 71.0607 15.8617 70.42 15.2022C69.7793 14.5427 68.9102 14.1717 68.0037 14.1709ZM50.5739 16.8096V18.5667C50.7818 19.3957 51.2766 20.1182 51.9655 20.5989C52.6544 21.0795 53.4901 21.2852 54.3159 21.1774C55.1417 21.0696 55.901 20.6558 56.4513 20.0134C57.0016 19.371 57.3053 18.5443 57.3053 17.6882C57.3053 16.832 57.0016 16.0053 56.4513 15.3629C55.901 14.7205 55.1417 14.3067 54.3159 14.1989C53.4901 14.0911 52.6544 14.2968 51.9655 14.7774C51.2766 15.2581 50.7818 15.9806 50.5739 16.8096Z" fill="white"/>
<circle cx="19" cy="19" r="19" fill="#2962EF"/>
<path opacity="0.6" fill-rule="evenodd" clip-rule="evenodd" d="M26.2078 12.4778V18.2318L18.3457 22.2759V7.86206L26.2078 12.4778Z" fill="white"/>
<path opacity="0.8" fill-rule="evenodd" clip-rule="evenodd" d="M18.3447 22.2759V31.4483L11.793 26.8021L18.3447 22.2759Z" fill="white"/>
<path fill-rule="evenodd" clip-rule="evenodd" d="M18.3447 7.86206V23.2136L11.793 27.5172V12.7763L18.3447 7.86206Z" fill="white"/>
</svg>
