<svg width="26" height="26" viewBox="0 0 26 26" fill="none" xmlns="http://www.w3.org/2000/svg">
<path d="M21.471 14.8242V20.8C21.471 20.9468 21.3452 21.0726 21.1984 21.0726H18.1161C17.9693 21.0726 17.8435 20.9468 17.8435 20.8V15.2435C17.8435 13.7758 17.3193 12.7693 15.9984 12.7693C14.9919 12.7693 14.4048 13.4403 14.1323 14.0903C14.0274 14.321 14.0064 14.6564 14.0064 14.971V20.8C14.0064 20.9468 13.8806 21.0726 13.7339 21.0726H10.6726C10.5258 21.0726 10.4 20.9468 10.4 20.8C10.4 19.3113 10.4419 12.1193 10.4 10.4419C10.4 10.2951 10.5258 10.1693 10.6726 10.1693H13.7548C13.9016 10.1693 14.0274 10.2951 14.0274 10.4419V11.721C14.0274 11.7419 14.0064 11.7419 14.0064 11.7629H14.0274V11.721C14.5097 10.9871 15.3693 9.91772 17.2984 9.91772C19.6887 9.91772 21.471 11.4903 21.471 14.8242ZM5.03225 21.0935H8.11451C8.26129 21.0935 8.38709 20.9677 8.38709 20.821V10.4419C8.38709 10.2951 8.26129 10.1693 8.11451 10.1693H5.03225C4.88548 10.1693 4.75967 10.2951 4.75967 10.4419V20.821C4.78064 20.9677 4.88548 21.0935 5.03225 21.0935Z" fill="white"/>
<path d="M6.4793 8.80649C7.55625 8.80649 8.4293 7.93345 8.4293 6.85649C8.4293 5.77954 7.55625 4.90649 6.4793 4.90649C5.40234 4.90649 4.5293 5.77954 4.5293 6.85649C4.5293 7.93345 5.40234 8.80649 6.4793 8.80649Z" fill="white"/>
</svg>
