<svg width="89" height="34" viewBox="0 0 89 34" fill="none" xmlns="http://www.w3.org/2000/svg">
<g clip-path="url(#clip0_1_5)">
<path opacity="0.5" fill-rule="evenodd" clip-rule="evenodd" d="M19.9806 6.94227V15.5964L9.99023 21.6789V0L19.9806 6.94227Z" fill="#2962EF"/>
<path opacity="0.7" fill-rule="evenodd" clip-rule="evenodd" d="M9.99037 21.6787V33.9998L0 27.7586L9.99037 21.6787Z" fill="#2962EF"/>
<path fill-rule="evenodd" clip-rule="evenodd" d="M9.99037 0V21.6789L0 27.7563V6.93972L9.99037 0Z" fill="#2962EF"/>
<path fill-rule="evenodd" clip-rule="evenodd" d="M34.471 10.5731C33.4699 10.5722 32.4858 10.8306 31.6152 11.3229V10.5731H28.6797V25.6552H31.6152V21.364C32.3863 21.7993 33.2474 22.0524 34.1322 22.1039C35.0169 22.1554 35.9018 22.0039 36.7185 21.661C37.5353 21.3181 38.2621 20.7931 38.8432 20.1262C39.4242 19.4594 39.8438 18.6686 40.0698 17.8147C40.2958 16.9609 40.3221 16.0667 40.1466 15.2011C39.9712 14.3355 39.5987 13.5216 39.0578 12.822C38.5169 12.1225 37.8221 11.5559 37.0269 11.166C36.2317 10.7761 35.3573 10.5733 34.471 10.5731ZM54.6264 21.8067H57.5619V15.8163C57.5619 14.6699 58.1269 14.0916 59.5702 13.805L61.1111 13.6515V10.8802C59.0283 10.8802 58.733 11.0388 57.5593 11.6479V10.8802H54.6264V21.8067ZM76.2405 15.0358H81.5233C81.2794 14.5456 80.9028 14.133 80.4361 13.8445C79.9694 13.5561 79.4311 13.4032 78.8819 13.4032C78.3327 13.4032 77.7944 13.5561 77.3277 13.8445C76.861 14.133 76.4845 14.5456 76.2405 15.0358ZM81.7082 17.1904H76.0582C76.2151 17.7109 76.5137 18.1778 76.9208 18.5394C77.328 18.901 77.8278 19.1431 78.3647 19.2388C78.9016 19.3345 79.4546 19.28 79.9623 19.0815C80.47 18.883 80.9126 18.5482 81.2408 18.1142H84.3972C83.9495 19.4959 82.9953 20.6585 81.7251 21.37C80.4549 22.0815 78.9621 22.2895 77.5447 21.9525C76.1273 21.6155 74.8896 20.7583 74.0787 19.552C73.2678 18.3457 72.9433 16.879 73.1701 15.4448C73.3968 14.0106 74.1581 12.7144 75.3019 11.8149C76.4457 10.9153 77.8879 10.4787 79.3406 10.5922C80.7934 10.7056 82.1497 11.3608 83.1389 12.4269C84.1281 13.493 84.6774 14.8915 84.6771 16.3434C84.6762 16.6268 84.6556 16.9098 84.6155 17.1904H81.7082ZM85.6736 7.03418H88.6039V21.8067H85.6736V7.03418ZM66.9821 10.5731C65.8794 10.5722 64.7994 10.885 63.869 11.4747C62.9386 12.0644 62.1965 12.9064 61.73 13.9019C61.2634 14.8974 61.0918 16.0049 61.2353 17.0942C61.3787 18.1836 61.8313 19.2094 62.5399 20.0513C63.2484 20.8931 64.1835 21.5159 65.2351 21.8464C66.2867 22.1769 67.4111 22.2015 68.4762 21.9171C69.5413 21.6328 70.5028 21.0514 71.2477 20.2413C71.9925 19.4311 72.4898 18.426 72.681 17.344H69.7583C69.5248 17.9878 69.0731 18.5303 68.4811 18.8778C67.889 19.2253 67.1939 19.3561 66.5155 19.2476C65.837 19.1391 65.2179 18.7981 64.7648 18.2835C64.3117 17.7688 64.053 17.1127 64.0335 16.4284C64.0139 15.744 64.2346 15.0743 64.6575 14.5348C65.0805 13.9953 65.6791 13.6197 66.3503 13.4728C67.0214 13.326 67.7229 13.4171 68.3338 13.7305C68.9447 14.0439 69.4267 14.5598 69.6967 15.1894H72.6578C72.3883 13.8881 71.6765 12.7193 70.6425 11.8802C69.6085 11.0411 68.3156 10.583 66.9821 10.5834V10.5731ZM49.377 10.8802H52.4254V15.8649C52.4383 16.0184 52.446 16.1745 52.446 16.3332C52.446 16.4918 52.446 16.6479 52.4254 16.804V21.8067H49.377V21.4382C48.4945 21.9057 47.5056 22.1378 46.5065 22.1118C45.5073 22.0857 44.5319 21.8025 43.6752 21.2896C42.8185 20.7767 42.1096 20.0517 41.6174 19.1849C41.1252 18.3182 40.8665 17.3393 40.8665 16.3434C40.8665 15.3476 41.1252 14.3687 41.6174 13.5019C42.1096 12.6352 42.8185 11.9101 43.6752 11.3972C44.5319 10.8844 45.5073 10.6011 46.5065 10.5751C47.5056 10.5491 48.4945 10.7811 49.377 11.2487V10.8802ZM46.6546 13.4033C46.0709 13.4028 45.5001 13.5748 45.0145 13.8975C44.5289 14.2203 44.1503 14.6793 43.9266 15.2165C43.7028 15.7537 43.644 16.345 43.7576 16.9155C43.8712 17.486 44.152 18.0101 44.5646 18.4215C44.9772 18.833 45.503 19.1133 46.0754 19.2269C46.6479 19.3406 47.2414 19.2825 47.7807 19.06C48.3201 18.8376 48.7811 18.4607 49.1055 17.9772C49.4298 17.4936 49.603 16.925 49.603 16.3434C49.603 15.5641 49.2924 14.8166 48.7396 14.2653C48.1867 13.714 47.4368 13.4039 46.6546 13.4033ZM31.6152 15.609V17.0778C31.7946 17.7708 32.2215 18.3748 32.8159 18.7766C33.4103 19.1783 34.1314 19.3503 34.844 19.2602C35.5566 19.1701 36.2117 18.8241 36.6865 18.2872C37.1614 17.7502 37.4234 17.0591 37.4234 16.3434C37.4234 15.6278 37.1614 14.9367 36.6865 14.3997C36.2117 13.8627 35.5566 13.5168 34.844 13.4267C34.1314 13.3366 33.4103 13.5085 32.8159 13.9103C32.2215 14.312 31.7946 14.916 31.6152 15.609Z" fill="#232427"/>
</g>
<defs>
<clipPath id="clip0_1_5">
<rect width="88.6061" height="34" fill="white"/>
</clipPath>
</defs>
</svg>
