<svg width="20" height="20" viewBox="0 0 20 20" fill="none" xmlns="http://www.w3.org/2000/svg">
<path d="M20 4.42371C19.2477 4.75183 18.452 4.96991 17.6375 5.07121C18.4958 4.56199 19.1376 3.75566 19.4412 2.80496C18.6375 3.28163 17.7582 3.6173 16.8412 3.79746C16.2791 3.19718 15.5493 2.77985 14.7469 2.5997C13.9444 2.41954 13.1063 2.48489 12.3415 2.78724C11.5766 3.08959 10.9204 3.61497 10.458 4.29513C9.99566 4.97528 9.74853 5.77877 9.74875 6.60121C9.74875 6.92621 9.77625 7.23871 9.84375 7.53621C8.2126 7.45624 6.6167 7.03289 5.16038 6.29385C3.70406 5.55482 2.42012 4.51673 1.3925 3.24746C0.866024 4.14978 0.703261 5.21884 0.937354 6.23696C1.17145 7.25508 1.78479 8.14569 2.6525 8.72746C2.00345 8.71005 1.36809 8.53685 0.8 8.22246V8.26746C0.801087 9.21425 1.12833 10.1318 1.72665 10.8655C2.32496 11.5993 3.15781 12.1046 4.085 12.2962C3.73423 12.3887 3.37273 12.434 3.01 12.4312C2.74949 12.4358 2.48923 12.4124 2.23375 12.3612C2.49868 13.175 3.00936 13.8866 3.69549 14.3982C4.38162 14.9097 5.20945 15.1959 6.065 15.2175C4.61367 16.3525 2.82372 16.9682 0.98125 16.9662C0.645 16.9662 0.3225 16.9512 0 16.91C1.87485 18.1181 4.05959 18.7572 6.29 18.75C13.835 18.75 17.96 12.5 17.96 7.08246C17.96 6.90121 17.9538 6.72621 17.945 6.55246C18.7537 5.97369 19.4501 5.25231 20 4.42371Z" fill="white"/>
</svg>
