<svg width="25" height="16" viewBox="0 0 25 16" fill="none" xmlns="http://www.w3.org/2000/svg">
<g clip-path="url(#clip0_1_110)">
<path d="M16.3009 7.76704C14.0572 6.65091 11.9089 5.6248 9.71289 4.55347V10.9624C12.0237 9.79307 14.4595 8.72216 16.3104 7.76704H16.3009Z" fill="white"/>
<path d="M16.3009 7.76704C14.0572 6.65091 9.71289 4.55347 9.71289 4.55347L15.505 8.1774C15.5055 8.1774 14.4499 8.72216 16.3009 7.76704Z" fill="#E8E0E0"/>
<path d="M10.1346 15.9793C5.47433 15.8994 3.8826 15.8275 2.90423 15.6399C2.2423 15.5152 1.66708 15.2384 1.24532 14.8369C0.919346 14.5331 0.660112 14.0695 0.45899 13.4262C0.28647 12.8904 0.219278 12.4445 0.123484 11.3554C-0.0231584 8.89748 -0.0581164 6.88794 0.123484 4.64258C0.273304 3.40262 0.345944 1.93064 1.34111 1.07189C1.811 0.669979 2.35762 0.411338 2.97143 0.304416C3.93027 0.134946 8.01537 0.000976562 12.2444 0.000976562C16.4639 0.000976562 20.558 0.134946 21.5178 0.304416C22.2846 0.438385 23.0037 0.83987 23.4259 1.35758C24.3339 2.68713 24.3498 4.3404 24.442 5.63361C24.4801 6.24979 24.4801 9.74863 24.442 10.3648C24.2985 12.4086 24.1832 13.1317 23.8572 13.8814C23.6557 14.3547 23.4836 14.6045 23.1858 14.8813C22.7187 15.3073 22.1232 15.5906 21.4787 15.6936C17.4459 15.9759 14.0213 16.0372 10.1346 15.9793ZM16.3104 7.76698C14.0667 6.65085 11.9184 5.61586 9.72241 4.54453V10.9539C12.0333 9.78456 14.4694 8.71322 16.3199 7.75811L16.3104 7.76698Z" fill="#CD201F"/>
</g>
<defs>
<clipPath id="clip0_1_110">
<rect width="24.4706" height="16" fill="white"/>
</clipPath>
</defs>
</svg>
